<svg xmlns="http://www.w3.org/2000/svg" viewBox="0 0 514 114.88"><defs><style>.a{fill:#fff;}.b{fill:#577db4;}</style></defs><path class="a" d="M81,210.75H97.45v70.73H81v-7.41q-10.1,9.45-21.71,9.44a31.28,31.28,0,0,1-24.26-10.6q-9.51-10.82-9.51-27,0-15.92,9.51-26.51a30.65,30.65,0,0,1,23.82-10.6Q71.24,208.79,81,219ZM42.26,245.9q0,10.17,5.45,16.55a17.83,17.83,0,0,0,14.09,6.47q9.08,0,14.67-6.25,5.58-6.46,5.59-16.41t-5.59-16.41a18.47,18.47,0,0,0-14.53-6.32,18.07,18.07,0,0,0-14.09,6.39A23.54,23.54,0,0,0,42.26,245.9Z" transform="translate(-25.56 -184.82)"/><path class="a" d="M129.35,226v55.48H113V226h-7V210.75h7V184.82h16.34v25.93h12.7V226Z" transform="translate(-25.56 -184.82)"/><path class="a" d="M145.26,245.61a35.17,35.17,0,0,1,11-26.08,38.69,38.69,0,0,1,53.59.08,36,36,0,0,1,10.9,26.58q0,15.9-11,26.65t-27.09,10.67q-15.9,0-26.65-10.89T145.26,245.61Zm16.7.29q0,10.6,5.67,16.77T183,268.92q9.59,0,15.33-6.18T204,246.26q0-10.31-5.73-16.49T183,223.53q-9.36,0-15.18,6.24T162,245.9Z" transform="translate(-25.56 -184.82)"/><path class="a" d="M228.76,245.61a35.17,35.17,0,0,1,11-26.08,38.69,38.69,0,0,1,53.59.08,36,36,0,0,1,10.9,26.58q0,15.9-11,26.65t-27.09,10.67q-15.9,0-26.65-10.89T228.76,245.61Zm16.7.29q0,10.6,5.67,16.77t15.32,6.25q9.58,0,15.33-6.18t5.73-16.48q0-10.31-5.73-16.49t-15.33-6.24q-9.36,0-15.18,6.24T245.46,245.9Z" transform="translate(-25.56 -184.82)"/><path class="a" d="M312.48,210.7h16.34v6.54a34.34,34.34,0,0,1,8.06-6.68,19.57,19.57,0,0,1,8.94-1.82q12,0,18.95,10.46a24.54,24.54,0,0,1,20.84-10.46q23.89,0,23.9,29v43.72H393.09V242.15q0-10.17-2.47-14.38t-8.35-4.29q-6.75,0-9.84,5.09t-3.08,16.34v36.53H352.93V242.36q0-18.87-10.89-18.88-6.9,0-10.06,5.16t-3.16,16.27v36.53H312.48Z" transform="translate(-25.56 -184.82)"/><rect class="a" x="401.02" y="1.9" width="112.98" height="112.98" rx="8.5"/><path class="b" d="M491.49,220.7h-8.42a22.49,22.49,0,0,0-20.68,13.61c-.23.54-.42,1.09-.61,1.64l-.17.46c-.18.55-.32,1.13-.45,1.7l-.13.49c-.12.58-.2,1.18-.27,1.77,0,.13,0,.27-.08.5a23.07,23.07,0,0,0-.12,2.34,22.53,22.53,0,0,0,22.51,22.51c.7,0,1.4,0,2.09-.1l.66-.08c.47-.06.94-.13,1.39-.21l.73-.15c.45-.1.9-.22,1.32-.34l.67-.19c.61-.19,1.21-.41,1.79-.65l.63-.3c.38-.17.76-.35,1.15-.55l.78-.44c.3-.17.6-.35.91-.55s.51-.33.76-.51a22.39,22.39,0,0,0,4.3-32.9l9.13-9.12a35.48,35.48,0,0,1,9,23.58c0,19.5-15.63,35.36-34.84,35.36h-.52a35.4,35.4,0,0,1-35.36-35.37c0-1,.05-2.11.16-3.29,0-.3.07-.6.11-.89l0-.31c.09-.67.19-1.34.31-2,.09-.48.19-1,.3-1.43s.27-1.11.43-1.66.28-1,.45-1.52c0-.13.07-.25.11-.36l.76-2.14h.08a35.35,35.35,0,0,1,32.61-21.75h23.57L493.79,220.7Z" transform="translate(-25.56 -184.82)"/></svg>
